<svg xmlns="http://www.w3.org/2000/svg" viewBox="0 0 64 64" role="img" aria-label="BITDENT favicon">
  <defs>
    <linearGradient id="bg" x1="8" y1="6" x2="56" y2="58" gradientUnits="userSpaceOnUse">
      <stop offset="0" stop-color="#1a1f2c" />
      <stop offset="1" stop-color="#0d1117" />
    </linearGradient>
    <linearGradient id="ring" x1="12" y1="10" x2="52" y2="54" gradientUnits="userSpaceOnUse">
      <stop offset="0" stop-color="#74c69d" />
      <stop offset="1" stop-color="#2d6a4f" />
    </linearGradient>
    <linearGradient id="monogram" x1="24" y1="20" x2="44" y2="43" gradientUnits="userSpaceOnUse">
      <stop offset="0" stop-color="#f6efe1" />
      <stop offset="1" stop-color="#d9c8a2" />
    </linearGradient>
  </defs>

  <rect x="4" y="4" width="56" height="56" rx="15" fill="url(#bg)" />
  <rect x="4.75" y="4.75" width="54.5" height="54.5" rx="14.25" fill="none" stroke="url(#ring)" stroke-width="1.5" />

  <path
    d="M32 12c-7.6 0-12.8 4.1-12.8 10.2 0 4.5 2.2 7.7 3.3 11.4 1 3.4.8 8.9 4.2 12 1.8 1.6 4.5 1.6 5.5-.9l1-2.7 1 2.7c1 2.5 3.7 2.5 5.5.9 3.4-3.1 3.2-8.6 4.2-12 1.1-3.7 3.3-6.9 3.3-11.4C44.8 16.1 39.6 12 32 12z"
    fill="#fbf9f4"
    opacity="0.95"
  />

  <path
    d="M26.8 20.5h7.5c4.3 0 6.8 2.2 6.8 5.7 0 2.4-1.2 3.9-3 4.8 2.3.8 4 2.8 4 5.6 0 3.8-2.7 6-7.4 6h-7.9V20.5zm4 3.6v5.1h3.1c2 0 3.1-.9 3.1-2.6 0-1.6-1.1-2.5-3.1-2.5h-3.1zm0 8.7v5.9h3.8c2.3 0 3.5-1 3.5-2.9 0-1.9-1.3-3-3.5-3h-3.8z"
    fill="url(#monogram)"
  />

  <circle cx="22" cy="17" r="1.2" fill="#74c69d" opacity="0.85" />
  <circle cx="42" cy="47" r="1.3" fill="#74c69d" opacity="0.75" />
</svg>
